<mxfile host="Electron" modified="2023-06-20T08:51:23.528Z" agent="Mozilla/5.0 (Windows NT 10.0; Win64; x64) AppleWebKit/537.36 (KHTML, like Gecko) draw.io/21.2.1 Chrome/112.0.5615.87 Electron/24.1.2 Safari/537.36" etag="0W6yFOqFmRLAvi6UxuPf" version="21.2.1" type="device">
  <diagram name="페이지-1" id="pESODvGt9el5GgAE3P89">
    <mxGraphModel dx="393" dy="796" grid="1" gridSize="10" guides="1" tooltips="1" connect="1" arrows="1" fold="1" page="1" pageScale="1" pageWidth="2339" pageHeight="3300" math="0" shadow="0">
      <root>
        <mxCell id="0" />
        <mxCell id="1" parent="0" />
        <mxCell id="vWmNfxOPMnDMFgF0u8v2-1" value="func1()" style="shape=process;whiteSpace=wrap;html=1;backgroundOutline=1;" parent="1" vertex="1">
          <mxGeometry x="220" y="70" width="90" height="30" as="geometry" />
        </mxCell>
        <mxCell id="CXzRp_0pz9DcJf-9rhww-1" value="int arr[7]&lt;br&gt;int pass=1&lt;br&gt;int comparecount=0&lt;br&gt;int exchangecount=0" style="rounded=0;whiteSpace=wrap;html=1;" vertex="1" parent="1">
          <mxGeometry x="205" y="130" width="120" height="60" as="geometry" />
        </mxCell>
        <mxCell id="CXzRp_0pz9DcJf-9rhww-2" value="int i: 0,1, 6" style="shape=loopLimit;whiteSpace=wrap;html=1;" vertex="1" parent="1">
          <mxGeometry x="205" y="210" width="125" height="40" as="geometry" />
        </mxCell>
      </root>
    </mxGraphModel>
  </diagram>
</mxfile>
